<svg xmlns="http://www.w3.org/2000/svg" width="434" height="212" fill="none"><g clip-path="url(#a)"><path fill="#666" d="M248.12 59.5c-28.65 0-51.96 23.31-51.96 51.96 0 28.65 23.31 51.96 51.96 51.96 28.65 0 51.96-23.31 51.96-51.96 0-28.65-23.31-51.96-51.96-51.96Zm0 84.44c-17.91 0-32.48-14.57-32.48-32.48 0-17.91 14.57-32.48 32.48-32.48 17.91 0 32.48 14.57 32.48 32.48 0 17.91-14.57 32.48-32.48 32.48ZM176.38 59.7c-1.78-.2-3.56-.32-5.34-.32-.89 0-1.74.02-2.61.04-.87.03-1.74.1-2.61.15-3.47.28-6.95.86-10.35 1.79-6.81 1.84-13.38 5.04-19.05 9.58-5.68 4.51-10.38 10.45-13.48 17.13a45.807 45.807 0 0 0-3.41 10.43c-.35 1.791-.62 3.581-.78 5.381-.06.9-.16 1.8-.17 2.69l-.03 1.34v.67l-.01.56.04 17.4.04 17.4.12 17.4h19.49l.12-17.4.04-17.4.04-17.4v-.53l.02-.42.02-.83c0-.56.08-1.1.11-1.65.1-1.09.27-2.16.48-3.22.44-2.11 1.1-4.15 1.98-6.07 1.77-3.84 4.42-7.28 7.82-10 3.38-2.72 7.43-4.76 11.81-5.97 2.19-.61 4.46-1 6.77-1.19.58-.03 1.16-.09 1.74-.11.58 0 1.17-.04 1.74-.03 1.12 0 2.23.07 3.34.18 4.43.44 8.74 1.81 12.63 4l9.73-16.89c-6.17-3.6-13.12-5.9-20.22-6.71h-.02ZM51.96 59.24C23.31 59.24 0 82.55 0 111.202c0 28.65 23.31 51.96 51.96 51.96h17.09v-19.49H51.96c-17.91 0-32.48-14.57-32.48-32.48 0-17.91 14.57-32.48 32.48-32.48 17.91 0 32.55 14.57 32.55 32.48v47.86c0 17.79-14.49 32.28-32.23 32.47-8.54-.09-16.55-3.46-22.6-9.5l-13.78 13.78c9.65 9.65 22.42 15.03 36.03 15.21h.71c28.25-.39 51.12-23.42 51.25-51.73l.02-49.37c-.68-28.07-23.72-50.69-51.95-50.69v.02ZM362.86 59.5c-28.65 0-51.96 23.31-51.96 51.96 0 28.65 23.31 51.96 51.96 51.96h17.78v-19.49h-17.78c-17.91 0-32.48-14.57-32.48-32.48 0-17.91 14.57-32.48 32.48-32.48 16.96 0 30.91 13.07 32.35 29.66h-.03v99.78h19.49v-96.96c0-28.65-23.15-51.96-51.8-51.96l-.01.01Z"/><path fill="#F55036" d="M72.87 10.72c0 6.49-4.7 10.41-12.46 10.41h-8.19v9.63H49V.26h11.41c7.75 0 12.46 3.92 12.46 10.45v.01Zm-3.22 0c0-4.88-3.22-7.67-9.32-7.67h-8.1V18.3h8.1c6.1 0 9.32-2.79 9.32-7.58ZM80.84 15.51C80.84 6.62 87.63 0 96.87 0c9.24 0 15.99 6.58 15.99 15.51s-6.84 15.51-15.99 15.51-16.03-6.62-16.03-15.51Zm28.79 0c0-7.27-5.44-12.63-12.76-12.63-7.32 0-12.85 5.36-12.85 12.63 0 7.27 5.49 12.63 12.85 12.63 7.36 0 12.76-5.36 12.76-12.63ZM164.29.26l-10.28 30.49h-3.4l-8.93-26-8.97 26h-3.35L119.07.26h3.31l8.8 26.22L140.29.26h3.01l8.97 26.35L161.19.26H164.29ZM194.99 27.96v2.79h-21.56V.26h20.91v2.79h-17.68V13.9h15.77v2.74h-15.77v11.33H195l-.01-.01ZM226.65 30.75l-6.97-9.8c-.78.09-1.57.13-2.44.13h-8.19v9.67h-3.22V.26h11.41c7.75 0 12.46 3.92 12.46 10.45 0 4.79-2.53 8.15-6.97 9.58l7.45 10.45h-3.53v.01Zm-.18-20.03c0-4.88-3.22-7.67-9.32-7.67h-8.1v15.29h8.1c6.1 0 9.32-2.83 9.32-7.62ZM262.14 27.96v2.79h-21.56V.26h20.91v2.79h-17.68V13.9h15.77v2.74h-15.77v11.33h18.34l-.01-.01ZM272.98.26h12.41c9.76 0 16.33 6.27 16.33 15.25s-6.58 15.25-16.33 15.25h-12.41V.26Zm12.24 27.7c8.1 0 13.33-5.14 13.33-12.46 0-7.32-5.23-12.46-13.33-12.46h-9.02v24.92h9.02ZM352.38 22.61c0 5.18-3.83 8.15-11.46 8.15h-14.03V.26h13.15c6.79 0 10.72 2.87 10.72 7.84 0 3.49-1.87 5.79-4.66 6.93 3.92.87 6.27 3.44 6.27 7.58h.01ZM330.12 2.92v11.06h9.71c4.88 0 7.71-1.87 7.71-5.53s-2.83-5.53-7.71-5.53h-9.71Zm19.04 19.43c0-3.96-2.92-5.71-8.28-5.71h-10.76V28.1h10.76c5.36 0 8.28-1.74 8.28-5.75ZM372.8 20.21v10.54h-3.18V20.21L357.43.26h3.44l10.45 17.12L381.78.26H385l-12.2 19.95Z"/></g><defs><clipPath id="a"><path fill="#fff" d="M0 0h433.96v211.03H0z"/></clipPath></defs></svg>